<?xml version="1.0" encoding="UTF-8" standalone="no"?>
<!-- Created with Inkscape (http://www.inkscape.org/) -->

<svg
   width="210mm"
   height="70mm"
   viewBox="0 0 210 70"
   version="1.1"
   id="svg1"
   xml:space="preserve"
   inkscape:export-filename="gaizette.svg"
   inkscape:export-xdpi="96"
   inkscape:export-ydpi="96"
   xmlns:inkscape="http://www.inkscape.org/namespaces/inkscape"
   xmlns:sodipodi="http://sodipodi.sourceforge.net/DTD/sodipodi-0.dtd"
   xmlns="http://www.w3.org/2000/svg"
   xmlns:svg="http://www.w3.org/2000/svg"><sodipodi:namedview
     id="namedview1"
     pagecolor="#ffffff"
     bordercolor="#000000"
     borderopacity="0.25"
     inkscape:showpageshadow="2"
     inkscape:pageopacity="0.0"
     inkscape:pagecheckerboard="0"
     inkscape:deskcolor="#d1d1d1"
     inkscape:document-units="mm"><inkscape:page
       x="0"
       y="0"
       width="210"
       height="70"
       id="page2"
       margin="0"
       bleed="0" /></sodipodi:namedview><defs
     id="defs1" /><g
     inkscape:label="Layer 1"
     inkscape:groupmode="layer"
     id="layer1"><path
       style="fill:#000000;stroke-width:1.24877"
       d="M 9.5990883,65.374807 C 8.8722025,65.287643 7.367842,64.923403 6.256065,64.565281 -0.20452784,62.484237 0.04052638,54.89944 6.6083821,53.660526 c 1.6401789,-0.309381 2.2015445,0.219821 1.1521133,1.086128 -0.4001523,0.330324 -1.0901357,1.418349 -1.5332981,2.417837 -1.3508933,3.046728 -0.070967,5.154908 3.6742709,6.051948 1.6271678,0.389727 5.3143858,-0.465428 7.0500308,-1.635086 1.786743,-1.204085 3.440749,-3.602179 3.440749,-4.988648 0,-0.575956 -0.697172,-2.431585 -1.549269,-4.123627 l -1.54927,-3.076449 -2.085161,1.06375 c -1.146839,0.585047 -2.837372,1.577916 -3.75674,2.206358 -0.919367,0.628442 -1.7601797,1.142621 -1.8684717,1.142621 -0.1082929,0 -1.1402549,-0.720313 -2.2932549,-1.600706 -1.153,-0.880393 -2.9278059,-2.004833 -3.9440122,-2.49877 L 1.4984202,48.807819 2.5751293,47.528221 C 3.6346604,46.269039 3.651922,46.113867 3.6570719,37.802089 l 0.00524,-8.446545 5.4281513,-2.771288 5.4281538,-2.7713 3.254792,1.559822 c 1.790137,0.857902 3.873948,1.559821 4.630691,1.559821 1.657491,0 2.959023,-1.281509 2.758019,-2.71558 -0.216091,-1.541727 1.510781,-1.657451 2.198826,-0.147354 1.247403,2.737746 0.127477,6.044167 -2.405745,7.102622 l -1.546054,0.645975 0.159073,8.460456 c 0.153152,8.145618 0.203419,8.55063 1.350742,10.883414 2.082854,4.234954 1.459184,7.829766 -1.849794,10.662119 -2.779655,2.379288 -9.175773,4.065222 -13.4700729,3.550556 z m 6.1525737,-16.717214 1.556827,-0.742405 v -8.261265 -8.261254 l -3.492978,-1.748298 c -2.839569,-1.421246 -3.54004,-1.625644 -3.744565,-1.092658 -0.3713698,0.967769 -0.2929448,17.466973 0.08557,18.000247 0.447803,0.630902 3.336728,2.83716 3.722873,2.843142 0.173501,0.0025 1.016028,-0.3292 1.872282,-0.737509 z m 12.570254,16.111874 c 0,-0.812597 2.069788,-0.831753 89.869574,-0.831753 79.59036,0 89.86957,0.07555 89.86957,0.660809 0,0.583687 -6.64468,0.667204 -56.93942,0.715681 -31.31669,0.03022 -71.757995,0.107144 -89.869576,0.170956 -32.026643,0.112889 -32.930148,0.09328 -32.930148,-0.715693 z M 40.656955,53.319214 c -4.218333,-2.1518 -7.192869,-2.20978 -9.596725,-0.187078 -1.490856,1.254473 -1.85724,1.081482 -1.85724,-0.876934 0,-2.508985 2.488255,-5.110777 6.189925,-6.472358 0.332894,-0.122504 9.228874,-27.523566 9.228874,-28.426487 0,-0.638357 -3.062955,-1.038786 -4.021567,-0.525755 -1.18708,0.63531 -1.526188,2.475005 -0.637267,3.45726 0.639543,0.70669 0.648189,0.841069 0.06842,1.063537 -1.027342,0.394236 -2.45818,-1.756927 -2.45818,-3.6957 0,-1.143221 0.351461,-2.086614 1.11576,-2.994942 1.574185,-1.870802 3.643866,-2.437592 7.655414,-2.096454 5.544847,0.471522 4.96838,-0.14713 7.786868,8.356709 8.755084,26.415535 9.659361,28.371004 12.605462,27.258977 0.779374,-0.294184 1.584706,-0.367212 1.789625,-0.162289 0.530113,0.530101 -5.762372,6.483309 -6.658116,6.299116 -1.686831,-0.34687 -3.686507,-2.054134 -4.651419,-3.971253 -0.566633,-1.125801 -1.874794,-4.47538 -2.907027,-7.443498 l -1.876787,-5.396583 h -5.831974 -5.831973 l -1.285874,4.074975 -1.285875,4.074963 2.492175,0.692454 c 1.370696,0.380849 3.227913,1.12655 4.127149,1.657113 0.899235,0.530564 1.817997,0.851547 2.041691,0.713296 0.223695,-0.138251 0.406717,-0.15004 0.406717,-0.02622 0,0.261741 -3.995504,6.026672 -4.109028,5.928732 -0.04185,-0.03609 -1.166403,-0.621811 -2.499028,-1.30159 z m 10.57289,-19.213299 c 0,-0.652456 -4.614882,-14.221754 -4.835602,-14.218295 -0.2211,0.0037 -4.428155,13.523618 -4.419757,14.203697 0.0022,0.181733 2.085617,0.330411 4.62972,0.330411 2.544101,0 4.625639,-0.142122 4.625639,-0.315813 z m 58.347485,19.926632 c -1.57126,-1.204361 -6.34504,-2.430612 -9.38414,-2.410532 -2.592324,0.01711 -4.000072,0.330586 -6.781918,1.510171 -0.67484,0.286155 -0.77094,0.0532 -0.77094,-1.868979 0,-1.356985 0.238408,-2.393736 0.624061,-2.713795 0.742603,-0.616304 12.151507,-15.602303 12.151507,-15.961436 0,-0.136565 -1.23901,-0.350641 -2.75335,-0.475705 -1.51436,-0.125076 -3.516931,-0.595025 -4.450175,-1.044356 l -1.696821,-0.816943 -1.328434,1.655927 c -1.001879,1.248879 -1.467655,1.540391 -1.894781,1.185916 -0.446402,-0.370484 -0.0524,-1.352476 1.860365,-4.636733 1.334692,-2.291686 2.566758,-4.166709 2.737914,-4.166709 0.171168,0 1.130212,0.395709 2.131242,0.879344 3.71762,1.796163 9.6809,1.94147 12.03411,0.293222 1.47338,-1.032005 1.61517,-0.954207 1.95789,1.074364 0.27858,1.648834 0.17291,1.94664 -1.21136,3.414166 -0.83412,0.884276 -4.12592,4.829193 -7.3151,8.766492 l -5.798532,7.158729 3.414182,0.0087 c 2.48819,0.0062 4.25058,0.304736 6.49796,1.098577 l 3.08376,1.089299 1.39746,-1.649258 c 1.09101,-1.287591 1.5157,-1.533698 1.93668,-1.122304 0.42307,0.413454 -0.0585,1.409807 -2.23517,4.625644 -3.49896,5.169107 -3.19983,4.877145 -4.20641,4.105607 z m 18.9534,-0.758064 c -1.44641,-0.687097 -3.72016,-1.556163 -5.05279,-1.931243 -1.33263,-0.375079 -2.69224,-0.769527 -3.02135,-0.876559 -0.47455,-0.154323 -0.42897,-0.444424 0.22027,-1.401578 0.71486,-1.053972 0.84658,-2.401553 1.03891,-10.62889 l 0.22027,-9.421895 5.94725,-2.743115 c 3.27101,-1.508723 6.08744,-2.664506 6.25877,-2.568414 0.39941,0.223979 6.92423,9.274016 7.0688,9.804517 0.0598,0.219658 -2.86481,2.268834 -6.49923,4.55374 l -6.60807,4.154384 v 2.135117 2.135116 l 3.65641,1.465677 3.65641,1.465665 2.48225,-1.777494 c 1.52719,-1.093608 2.6396,-1.620138 2.89123,-1.368511 0.62413,0.624121 0.24888,0.990359 -4.87275,4.755765 l -4.75656,3.497009 z m 4.5435,-16.320843 1.88687,-1.272731 -1.64171,-2.281609 c -5.37725,-7.473094 -5.43608,-7.466401 -5.43608,0.617815 v 6.203448 l 1.65202,-0.99709 c 0.9086,-0.548409 2.50111,-1.569825 3.5389,-2.269833 z m 62.41684,16.733098 c -2.0617,-1.057718 -7.41463,-2.965134 -8.32126,-2.965134 -1.04371,0 -1.2615,-0.843604 -0.51278,-1.986301 0.58222,-0.888572 0.69878,-2.616378 0.69878,-10.358019 v -9.291549 l 2.09254,-0.903307 c 1.15092,-0.496822 3.96365,-1.779368 6.25054,-2.850111 3.36715,-1.576517 4.26399,-1.839882 4.71531,-1.384732 0.30653,0.309132 2.03856,2.643589 3.84895,5.187689 l 3.29161,4.625644 -3.60156,2.325228 c -1.98085,1.278875 -5.03637,3.162165 -6.79004,4.185104 l -3.18849,1.859876 9e-5,2.202687 7e-5,2.202687 3.37808,1.321607 c 1.85794,0.726882 3.51007,1.37754 3.6714,1.445897 0.16132,0.06831 1.49443,-0.759924 2.96246,-1.840632 1.46802,-1.080695 2.78706,-1.846988 2.93117,-1.702868 0.71483,0.714819 -0.13294,1.625694 -4.71917,5.070505 l -4.9812,3.741479 z m 2.9883,-16.33162 c 1.1509,-0.716617 2.09255,-1.478527 2.09255,-1.693128 0,-0.608311 -5.74754,-8.288863 -6.20277,-8.288863 -0.22821,0 -0.40528,2.813096 -0.40528,6.438453 v 6.438466 l 1.21148,-0.796001 c 0.6663,-0.437793 2.15312,-1.38231 3.30402,-2.098927 z M 82.34287,53.058521 c -3.39348,-1.418549 -7.446297,-1.499781 -9.941396,-0.199266 -2.037341,1.061927 -2.555303,0.65318 -1.57486,-1.242785 0.452324,-0.874711 1.595614,-1.791018 3.32203,-2.662508 l 2.632352,-1.328812 -0.0067,-15.522582 c -0.0037,-8.53743 -0.166769,-15.774732 -0.362352,-16.08289 -0.195582,-0.308171 -1.201177,-0.704654 -2.234654,-0.88108 -1.033478,-0.176426 -1.861629,-0.469461 -1.840336,-0.651182 0.02129,-0.181721 0.03871,-0.627755 0.03871,-0.991208 0,-0.55996 1.080087,-0.660798 7.077555,-0.660798 4.275964,0 7.433579,-0.190537 7.976964,-0.481349 0.652116,-0.349006 1.033101,-0.347657 1.385651,0.005 0.681839,0.681839 -0.774815,2.049151 -3.003788,2.819552 l -1.762149,0.609049 v 15.99434 15.994329 l 1.854355,0.676107 c 1.698154,0.619163 1.923167,0.613844 2.671264,-0.06319 0.614043,-0.555701 0.942297,-0.613906 1.321822,-0.234381 0.379526,0.379525 -0.10888,1.171193 -1.966712,3.187889 -1.359394,1.47563 -2.590432,2.708775 -2.73564,2.740331 -0.145207,0.03159 -1.428642,-0.429451 -2.852076,-1.024476 z m 71.73654,0.28879 c -0.44727,-0.494225 -2.25627,-1.611796 -4.02002,-2.483485 l -3.20681,-1.584885 0.86798,-1.218958 c 0.79919,-1.122354 0.86798,-1.972952 0.86798,-10.732637 v -9.513679 h -1.32161 c -1.17477,0 -1.32161,-0.146843 -1.32161,-1.321607 0,-1.174765 0.14684,-1.32162 1.32161,-1.32162 h 1.32161 l 0.002,-3.193883 0.002,-3.193896 3.03359,-1.652018 c 1.66848,-0.908603 3.15397,-1.652018 3.30109,-1.652018 0.14712,0 0.26747,2.081544 0.26747,4.625643 v 4.625644 h 3.30404 3.30403 v 1.762148 1.762147 h -3.31297 -3.31297 l 0.11901,9.104283 0.11901,9.10427 2.07479,1.274679 2.07477,1.274666 1.34242,-0.992482 c 0.89524,-0.661884 1.48919,-0.84569 1.78308,-0.551793 0.2939,0.293885 -0.80535,1.496185 -3.30001,3.609373 -2.05739,1.742779 -3.9114,3.168695 -4.12001,3.168695 -0.2086,0 -0.74524,-0.404363 -1.19249,-0.898587 z m 19.39948,-0.462656 c -0.96918,-0.735199 -2.87614,-1.849373 -4.23768,-2.475942 l -2.47553,-1.139225 1.04378,-1.538106 c 1.01349,-1.49345 1.04378,-1.798498 1.04378,-10.507647 v -8.969528 h -1.54187 c -1.46845,0 -1.54188,-0.07343 -1.54188,-1.541878 0,-1.41951 0.1049,-1.541889 1.32161,-1.541889 h 1.32162 v -3.211316 -3.211328 l 3.02631,-1.634586 c 1.66448,-0.899012 3.14458,-1.634585 3.28912,-1.634585 0.14455,0 0.31908,2.11521 0.38784,4.700457 l 0.12504,4.700458 3.1939,-0.104397 3.1939,-0.104397 v 1.791705 1.791706 h -3.30403 -3.30404 v 8.993217 8.993231 l 2.15903,1.328463 2.15903,1.328463 1.44986,-1.069669 c 1.05343,-0.777207 1.53963,-0.924437 1.77816,-0.538481 0.33272,0.538356 -6.00045,6.906754 -6.88527,6.923575 -0.24229,0.005 -1.2335,-0.593152 -2.20268,-1.328351 z M 1.7731976,5.9640089 C 1.6283619,5.8191769 1.616531,5.4226939 1.746911,5.0829419 c 0.2024301,-0.527529 15.31635,-0.61774 103.495859,-0.61774 102.96513,0 103.25881,0.0025 103.25881,0.88108 0,0.878557 -0.29368,0.881067 -103.23251,0.881067 -56.777894,0 -103.3510331,-0.118508 -103.4958688,-0.26334 z"
       id="path1"
       sodipodi:nodetypes="scsssssssccsssscsscccssssccssssscccccsscccsssccsssscssscscssssssscccccssssssssccsscssssssccsssscssssccscssccccsscscsccscccccsssccscsscsssssscsssscsscccssscscssssscsscsssccsssssscscccssssccccscsscssscccssscccccccccccsssscccscsscssscccssscccccccccccsscccccssscc" /></g></svg>
